# xmcd CD database file
#
# Track frame offsets:
#	150
#	15042
#	30140
#	43285
#	58675
#	73745
#	90932
#	105002
#	122562
#	135337
#
# Disc length: 1998 seconds
#
# Revision: 5
# Processed by: cddbd v1.5.2PL0 Copyright (c) Steve Scherf et al.
# Submitted via: CDex 1.79
#
DISCID=6707cc0a
DTITLE=Desert Rose Band - Live Goes On
DYEAR=1993
DGENRE=Country
TTITLE0=What About Love
TTITLE1=Night After Night
TTITLE2=Walk On By
TTITLE3=Love`s Refugees
TTITLE4=Life Goes On
TTITLE5=That's Not The Way
TTITLE6=Till It's Over
TTITLE7=Hold On
TTITLE8=A Little Rain
TTITLE9=Throw Me A Lifeline
EXTD=YEAR: 1993
EXTT0=
EXTT1=
EXTT2=
EXTT3=
EXTT4=
EXTT5=
EXTT6=
EXTT7=
EXTT8=
EXTT9=
PLAYORDER=
